<svg id="Layer_1" data-name="Layer 1" xmlns="http://www.w3.org/2000/svg" width="2000" height="2000" viewBox="0 0 2000 2000">
  <defs>
    <style>
      .cls-1 {
        fill: #9ce5e5;
      }

      .cls-2, .cls-6, .cls-7 {
        fill: #fff;
      }

      .cls-2 {
        opacity: 0.1;
      }

      .cls-3 {
        fill: #6abcea;
      }

      .cls-4 {
        fill: #4daa6c;
      }

      .cls-5 {
        fill: #40434c;
        opacity: 0.32;
      }

      .cls-6 {
        opacity: 0.16;
      }

      .cls-7 {
        opacity: 0.38;
      }

      .cls-8 {
        fill: #dbdb8a;
      }
    </style>
  </defs>
  <g>
    <path class="cls-1" d="M1476.11091,345.20019c41.848-38.21886,89.87685-70.01785,139.60774-96.98789,50.31972-27.291,104.60243-51.01966,161.34717-60.71778a231.71413,231.71413,0,0,1,35.12339-3.42133c12.2357-.214,24.62247-.42306,33.94032,8.74991,4.4059,4.3368,7.7669,10.06317,8.52717,16.27653.57155,4.66009-.01753,9.6891-.50865,14.333-.0629.60429-.13586,1.207-.20392,1.81134-.01264.12091-.27431,2.1274-.083.72649q-.21153,1.548-.46327,3.09031c-.42306,2.6523-.9214,5.29326-1.47542,7.92055-1.11011,5.24531-2.45714,10.438-3.97768,15.57892-6.9891,23.64048-17.24331,45.811-28.817,67.56947a742.04325,742.04325,0,0,1-44.61732,72.61215c-32.33136,46.85559-68.74378,91.38629-109.34321,131.33966q-6.53691,6.43327-13.26022,12.67371c-6.09529,5.6547,3.03618,14.75342,9.11626,9.11522,42.33136-39.27379,79.80388-84.11026,113.52738-130.90166a808.51135,808.51135,0,0,0,48.42924-75.067c13.0336-23.08672,24.864-47.06957,33.59512-72.13881a213.87906,213.87906,0,0,0,8.71614-32.14007c1.92838-10.62313,4.02563-22.972,1.01214-33.5549-4.15427-14.57967-17.20566-27.06079-32.24577-29.77729-12.01939-2.1702-25.05558-1.35193-37.15283-.282-27.31369,2.41564-54.144,9.018-80.12356,17.62718a639.70376,639.70376,0,0,0-84.78364,35.564c-53.71115,26.88213-105.17888,59.67677-151.01743,98.57649q-7.10345,6.02722-13.98542,12.30891c-6.13809,5.60675,2.99853,14.70289,9.11625,9.115Z"/>
    <g>
      <circle class="cls-2" cx="980.98757" cy="1080.25117" r="781.68311"/>
      <circle class="cls-3" cx="980.98699" cy="1071.04881" r="611.1272" transform="translate(-470.02144 1007.36549) rotate(-45)"/>
      <path class="cls-4" d="M1373.64594,601.61821c-33.55258,4.31025-69.18436,19.7069-96.24154,29.29519-31.2411,11.07119-67.63109,34.23963-61.78252,66.86438,2.64354,14.75342,14.0357,27.2018,14.89419,42.16663,1.24881,21.693-19.72546,38.03014-40.00262,45.84345-20.27947,7.81356-43.19733,12.01913-58.39134,27.55551-6.35954,6.50546-10.94925,14.66139-17.80971,20.63835-17.86513,15.5588-44.572,12.0908-68.2377,13.08026-25.607,1.06989-50.486,8.39878-75.06078,15.67353q-64.12391,18.98427-128.24549,37.967c-27.55294,8.15722-55.95173,16.75735-77.99873,35.18784-22.04415,18.43025-36.20849,49.48392-26.33429,76.46788,5.54385,15.14349,17.60062,26.843,26.1858,40.49219,15.16385,24.09886,19.21216,53.77534,33.61806,78.3349,18.50191,31.54712,51.69434,51.04364,83.46446,69.16555,11.12275,6.34562,22.583,12.81086,35.25668,14.64643,29.28771,4.23832,56.34978-17.24975,73.32858-41.48448,16.9788-24.23575,28.28562-52.5982,48.75639-73.96536,20.19389-21.08,49.66026-34.02205,78.69351-30.97814,29.03326,3.04262,56.40754,23.54871,64.28762,51.6567,7.87775,28.10928-6.76971,61.71472-33.99292,72.251-15.96691,6.1783-33.71861,4.484-50.78068,5.87358-17.06181,1.38983-35.82591,7.51528-43.39894,22.86655-4.69772,9.5241-4.11122,20.72007-6.65395,31.03228-12.93822,52.47729-97.82009,63.98933-104.51684,117.62366-2.6889,21.52184,9.43362,42.393,24.796,57.704,43.94523,43.79777,116.594,57.89276,145.30009,112.8968,8.769,16.80014,12.81472,36.65166,26.19327,50.073,13.43681,13.47935,33.30586,17.53024,51.5082,23.09807a248.93573,248.93573,0,0,1,37.89557,15.17364,611.90094,611.90094,0,0,0,168.00629-110.74928c-3.351-19.23717-12.92791-37.62461-15.70241-57.17786-6.83777-48.23253,27.51014-91.21356,46.57124-136.04513a227.96464,227.96464,0,0,0,11.91575-140.68511c-6.0775-25.61553-17.68879-51.43524-39.33025-66.43126-12.09983-8.38769-27.63363-13.86219-34.06871-27.10616-8.39878-17.27476,4.02331-38.17735,20.10082-48.69091,16.07261-10.51484,35.5186-14.80112,51.92611-24.78746,16.4075-9.98609,30.06293-29.65637,23.38886-47.66742,35.34485-.83349,66.53078,33.20248,101.19089,26.2224a46.78251,46.78251,0,0,0,23.53994-12.88021C1564.17,830.384,1486.19393,696.09611,1373.64594,601.61821Z"/>
      <path class="cls-4" d="M369.85946,1075.43491c0,251.62078,152.08758,467.69254,369.33622,561.38851,11.7799-17.03809,11.01215-41.29164,6.84292-62.31127a283.50562,283.50562,0,0,0-92.93312-158.85368c-26.43768-22.62577-59.88946-45.15227-62.31644-79.86292-2.18541-31.28415,22.558-57.43979,46.78006-77.35911,5.54874-4.56444,11.43-9.3921,13.84182-16.16336,3.90988-10.97812-2.62317-22.87506-10.21656-31.71572a117.97753,117.97753,0,0,0-62.1022-37.69526c-13.44919-3.1496-27.70917-4.00423-39.97245-10.36377-16.81767-8.721-27.68132-26.70579-45.08834-34.18188-17.87261-7.67512-40.355-3.21509-55.80066-15.03778-17.3539-13.28187-15.647-42.25712-.6293-58.13329s38.71358-20.54656,60.5087-18.9755c19.68034,1.4187,39.766,7.14508,58.77393,1.85311,13.006-3.62036,24.12155-12.11866,33.79672-21.53577,56.40986-54.90195,69.22485-149.21743,29.51407-217.18083-6.72459-11.50688-14.92435-22.72682-16.98628-35.89268-1.76493-11.27769,1.20086-22.68119,2.42441-34.0321,5.81814-54.05481-10.84845-85.81461-39.85412-102.3126C445.30025,738.693,369.85946,898.24148,369.85946,1075.43491Z"/>
      <path class="cls-1" d="M591.93705,599.7401c17.266,19.73577,62.20815,9.77082,85.2923,8.8569,37.93063-1.50171,36.9966,24.2386,63.23525,49.36327,24.416,23.38371,55.81587,38.62928,85.93165,53.20765,19.13147,9.26346,45.4307,17.17267,58.82446.66463,6.19841-7.64238,7.53023-18.89094,15.23165-25.0164,13.52215-10.75795,32.32388,2.15758,46.35468,12.24575a149.58057,149.58057,0,0,0,110.95939,25.71634c24.71321-4.18934,52.47755-21.279,50.14106-46.23635-.60662-6.48792-3.26278-13.23263-.83838-19.28125,4.212-10.49732,18.81437-10.13974,30.116-9.69039,22.05936.87731,45.05791-5.54,61.00471-20.80823,15.944-15.26929,23.32829-40.11579,14.90424-60.52134-3.55977-8.61534-9.62748-16.12778-12.31123-25.054-3.20993-10.67469-1.279-22.38317-4.509-33.05141a38.16249,38.16249,0,0,0-7.78186-14.05477A611.929,611.929,0,0,0,591.93705,599.7401Z"/>
      <path class="cls-5" d="M1130.29942,478.32619c110.4559,110.57423,178.76682,263.25837,178.76682,431.89937,0,337.51712-273.61106,611.12817-611.12688,611.12817a612.285,612.285,0,0,1-149.31308-18.40652c110.60955,110.72788,263.485,179.2288,432.36006,179.2288,337.51583,0,611.12946-273.6108,611.12946-611.12688C1592.1158,785.04383,1395.63493,544.95777,1130.29942,478.32619Z"/>
      <path class="cls-6" d="M562.46063,812.18273c-44.73824,48.04021-62.07977,115.091-72.8501,179.84676-9.43361,56.71356-14.99757,115.32017-2.01423,171.32733,12.98358,56.00717,47.15774,109.56467,99.34835,133.68106,52.19036,24.11639,122.45983,11.18591,153.77182-37.03063,10.55378-16.2487,16.28633-35.18888,19.82884-54.23837,10.89614-58.60558,2.12741-119.40741,11.77732-178.23058,7.28093-44.37189,24.839-86.36476,43.93259-127.07479,9.78371-20.86109,20.09592-41.76755,24.93725-64.29535,4.84132-22.52651,3.668-47.30237-8.44158-66.90588-13.97536-22.62731-40.685-35.07827-67.16033-37.60477C693.77271,724.80221,610.87723,760.19243,562.46063,812.18273Z"/>
      <path class="cls-7" d="M743.58894,600.70429c-14.5544,11.7701-28.00848,25.82075-34.75576,43.27932-6.74728,17.45986-5.61448,38.86853,6.61631,53.039,11.5734,13.41258,30.14105,17.918,47.44958,21.69947,19.26244,4.20816,38.769,8.44029,58.472,7.7718,19.7056-.66978,39.95234-6.77228,53.95787-20.652,11.36973-11.27021,17.67874-26.5511,23.51957-41.45663,9.11394-23.25275,17.85508-49.15032,9.30265-72.616C881.72616,519.25149,781.24759,570.25105,743.58894,600.70429Z"/>
    </g>
    <g>
      <path class="cls-2" d="M1740.50723,679.38285c0,123.15874-99.839,222.9977-222.99383,222.9977-123.16,0-222.999-99.839-222.999-222.9977,0-123.15744,99.839-222.99666,222.999-222.99666C1640.66827,456.38619,1740.50723,556.22541,1740.50723,679.38285Z"/>
      <circle class="cls-8" cx="1517.51276" cy="676.75782" r="174.34112" transform="translate(694.51482 2120.19833) rotate(-84.34497)"/>
      <path class="cls-5" d="M1560.109,507.66779a174.39178,174.39178,0,0,1-165.94178,292.30064A174.35162,174.35162,0,1,0,1560.109,507.66779Z"/>
      <path class="cls-6" d="M1398.11476,602.90853c-12.76188,13.70467-17.7089,32.83356-20.7804,51.30686-2.69406,16.17831-4.28008,32.89776-.57671,48.876,3.70338,15.978,13.45435,31.25631,28.341,38.13559,14.88929,6.87953,34.937,3.19111,43.8697-10.56383a42.45076,42.45076,0,0,0,5.657-15.47218c3.10681-16.71945.60687-34.06485,3.35868-50.84591,2.07688-12.65875,7.08707-24.63767,12.53269-36.25154,2.792-5.95144,5.73514-11.91576,7.11491-18.34207,1.3821-6.42632,1.04721-13.49456-2.40687-19.08739-3.988-6.4539-11.60639-10.00646-19.15931-10.72754C1435.57464,577.9816,1411.929,588.07725,1398.11476,602.90853Z"/>
    </g>
    <path class="cls-1" d="M399.842,1387.62215A1397.60259,1397.60259,0,0,0,168.47668,1737.112c-7.233,15.64208-14.75574,32.37674-14.33784,49.99515a50.44,50.44,0,0,0,17.34643,37.20929c23.63043,20.47206,56.4957,19.37072,84.08886,8.40007,16.5132-6.566,31.833-15.632,47.16522-24.52811q22.2357-12.90212,44.23732-26.20848,45.80439-27.6964,90.58426-57.04329c117.10263-76.67567,228.89551-161.27034,336.42841-250.8123,108.61052-90.43835,212.89327-185.96113,314.65081-284.01014,102.13266-98.41278,201.75016-199.39511,300.93223-300.76981q18.01015-18.40459,36.00225-36.82542c5.80062-5.93778-3.30584-15.06047-9.11651-9.11523-96.51585,98.78557-193.19283,197.434-291.97452,293.9635-98.487,96.239-199.08394,190.39074-303.51518,280.17194-104.167,89.5533-212.191,174.71592-325.26286,252.78271q-85.29848,58.89368-174.40114,112.01561c-14.74311,8.75765-29.504,17.53025-44.50673,25.83828-15.06047,8.341-30.851,16.04116-47.99844,18.827-26.64676,4.32778-60.93176-8.90743-61.77015-39.89562-.47333-17.4346,8.18738-34.16049,15.38789-49.51924q11.29147-24.0919,23.50694-47.73806,23.40666-45.30978,50.10084-88.8183A1380.13987,1380.13987,0,0,1,375.4461,1435.17639q16.40106-19.528,33.51211-38.439c5.549-6.142-3.53966-15.28579-9.11625-9.11522Z"/>
  </g>
</svg>
