<svg id="Layer_1" data-name="Layer 1" xmlns="http://www.w3.org/2000/svg" width="421.80559" height="333.82157" viewBox="0 0 421.80559 333.82157">
  <defs>
    <style>
      .cls-1 {
        fill: #fff;
      }
    </style>
  </defs>
  <g>
    <path class="cls-1" d="M379.08673,141.803A92.13482,92.13482,0,0,0,212.86565,98.841c1.95422-.07509,3.91492-.11774,5.88581-.11774A151.35,151.35,0,0,1,364.749,210.12069a106.6099,106.6099,0,0,1,52.53287,28.89879q1.951,1.951,3.787,3.98351a59.30227,59.30227,0,0,0-41.98215-101.2Z" transform="translate(-16.5972 -60.58921)"/>
    <path class="cls-1" d="M341.39586,235.39843a123.51659,123.51659,0,0,0-245.28877,0,79.50618,79.50618,0,1,0-.0037,159.01236H341.4005a79.50618,79.50618,0,1,0-.00464-159.01236Z" transform="translate(-16.5972 -60.58921)"/>
  </g>
</svg>
