<svg id="Layer_1" data-name="Layer 1" xmlns="http://www.w3.org/2000/svg" width="2000" height="2000" viewBox="0 0 2000 2000">
  <defs>
    <style>
      .cls-1 {
        fill: #ffc127;
      }

      .cls-2 {
        fill: #f59a37;
      }

      .cls-3 {
        fill: #fff;
        opacity: 0.41;
      }
    </style>
  </defs>
  <g>
    <path class="cls-1" d="M911.52964,153.98827C937.791,114.9855,971.25,78.85505,1014.51805,61.32554c43.26809-17.53113,97.725-12.52794,129.97365,21.55568,39.74259,42.00521,36.1921,113.47049,77.25761,154.14953,33.91716,33.59852,87.71016,35.28908,134.239,25.94107,46.52686-9.34607,92.03064-27.60793,139.4495-26.45764,47.42082,1.14867,99.40612,29.9734,105.91784,77.5795,6.77162,49.4962-37.271,96.45106-27.21661,145.37228,7.17561,34.91981,40.61091,58.681,74.65624,67.75s69.88732,7.01563,104.9181,10.54729c55.35863,5.58175,110.95477,26.65557,148.93088,67.848,37.97773,41.19108,54.83718,104.51575,32.849,156.295-42.40912,99.87338-202.21508,123.98631-213.21082,232.13788-5.65475,55.61691,34.45256,105.02128,76.85526,140.79805,42.40139,35.77872,91.48745,67.58512,115.9139,117.71991,21.91514,44.98071,19.57173,101.20278-6.00819,144.15061-25.58153,42.94977-73.58025,71.25306-123.07191,72.57143-37.30735.99324-74.43753-12.25537-111.44565-7.37548-84.5556,11.14954-128.912,106.55966-149.62955,190.36565-20.71716,83.806-40.4889,180.2444-114.4449,223.24317-38.507,22.38733-87.61346,24.93354-128.175,6.64637-49.86709-22.484-82.09662-71.15767-119.21739-111.70076-37.12207-40.54276-90.50168-76.58593-143.03337-61.57376-24.9258,7.12336-45.34514,24.759-65.6334,41.07037a906.79531,906.79531,0,0,1-214.71122,128.34151c-53.98152,22.81987-123.18127,37.69089-165.326-3.40479-42.46954-41.41433-30.01785-111.72607-16.65665-169.89212,13.36121-58.16766,19.10617-131.47243-29.30951-165.53366-41.70571-29.34261-97.9735-10.89417-148.72321-9.27793-58.94869,1.87908-119.51493-23.1716-155.62949-70.41655s-44.1854-116.58064-14.738-168.357c35.44612-62.31845,119.09376-99.5515,121.74123-171.42887,2.27525-61.7626-58.69043-105.22246-115.02023-128.9405-56.32818-23.72-121.36871-45.33569-148.42045-100.7339C48.33571,850.86948,54.55119,801.703,77.36325,764.24958c22.81175-37.45337,60.28913-64.011,100.65765-80.2555,51.32758-20.65557,110.66922-27.59852,150.77491-66.06752,37.748-36.2093,49.04127-97.76911,26.65557-145.30382-11.92083-25.31059-31.89694-45.98692-44.19319-71.11354-26.99625-55.1542-10.55671-126.71942,33.49241-169.12211,44.05074-42.403,110.98624-56.09066,169.91093-41.07232,79.43,20.24542,144.0445,84.62206,228.06627,89.3436C827.06463,285.39744,868.40757,218.03881,911.52964,153.98827Z"/>
    <path class="cls-2" d="M910.98159,211.72957c24.59284-36.05095,55.92582-69.44343,96.4462-85.64548,40.51907-16.20334,91.51893-11.57882,121.71752,19.92354,37.21877,38.824,33.89477,104.87527,72.35079,142.473,31.76227,31.05392,82.13944,32.616,125.71157,23.97632,43.57213-8.63805,86.18607-25.51632,130.59315-24.45494,44.40864,1.063,93.09228,27.70463,99.1906,71.70443,6.34077,45.74778-34.90417,89.14566-25.48808,134.361,6.71938,32.27366,38.0316,54.23657,69.91425,62.61957,31.88233,8.38138,65.44775,6.48316,98.25233,9.74712,51.84441,5.15862,103.90727,24.63729,139.47222,62.70848,35.56449,38.0728,51.35445,96.6,30.76377,144.45627-39.71565,92.30969-189.37207,114.59546-199.6692,214.55613-5.2949,51.40383,32.263,97.066,71.97245,130.13362s85.67727,62.46576,108.551,108.80281c20.52415,41.57429,18.32968,93.53753-5.62457,133.23275-23.95588,39.69522-68.908,65.855-115.25611,67.07341-34.93727.91893-69.70821-11.3267-104.36675-6.81608-79.18282,10.30491-120.72363,98.48849-140.12443,175.946s-37.91776,166.59181-107.17591,206.3331c-36.06069,20.69353-82.04761,23.04635-120.03308,6.1444-46.69987-20.78082-76.88256-65.768-111.64532-103.24021-34.76471-37.47089-84.7538-70.78419-133.94884-56.91127-23.34265,6.58472-42.46309,22.88476-61.46477,37.96021a851.54725,851.54725,0,0,1-201.07291,118.62c-50.553,21.093-115.35735,34.83577-154.82442-3.14682-39.7715-38.27561-28.11026-103.26228-15.59855-157.02347,12.512-53.76153,17.89264-121.51473-27.44763-152.99633-39.057-27.11828-91.75025-10.06738-139.27558-8.57314-55.20482,1.7363-111.92432-21.41778-145.74446-65.08336-33.82047-43.66753-41.3809-107.75116-13.80315-155.60419,33.19453-57.59885,111.52975-92.01182,114.00912-158.445,2.12957-57.08552-54.96373-97.25124-107.71449-119.17424C206.89787,963.46386,145.98768,943.48484,120.655,892.2838c-18.03827-36.45818-12.219-81.9016,9.14489-116.51737,21.36229-34.61577,56.458-59.16253,94.2647-74.178,48.06556-19.09027,103.638-25.5069,141.19749-61.062,35.35072-33.4671,45.92657-90.36378,24.96015-134.29738-11.16187-23.39517-29.86859-42.50588-41.38415-65.72811-25.28041-50.97616-9.88632-117.12123,31.36479-156.31253,41.2524-39.19129,103.93719-51.84123,159.118-37.96021,74.38562,18.7116,134.89638,78.21159,213.58008,82.57491C831.88255,333.18394,870.59718,270.92877,910.98159,211.72957Z"/>
    <circle class="cls-1" cx="1018.28569" cy="982.36885" r="619.49335"/>
    <path class="cls-3" d="M524.13933,960.61361c1.21843,50.44531,11.669,102.82973,43.05426,142.34292,31.908,40.17188,82.21375,62.42487,132.91735,70.24522,37.61175,5.80207,79.10035,3.484,109.25611-19.73177,43.01759-33.11861,48.124-94.39774,59.58565-147.46357a446.687,446.687,0,0,1,116.628-216.75222c48.35889-49.41379,112.20954-94.56388,121.02183-163.13932,11.26668-87.68777-69.62741-147.07224-147.56022-155.52825-77.60939-8.42259-126.47512,27.727-187.42,68.56765C627.00573,636.06642,519.73643,778.39344,524.13933,960.61361Z"/>
    <path class="cls-1" d="M227.48205,811.51821a391.57029,391.57029,0,0,1,94.6275,4.87665c5.02718.88259,7.18693-6.81608,2.12306-7.70483a400.20219,400.20219,0,0,0-96.75056-5.16187c-5.10151.35174-5.1398,8.34471,0,7.99Z"/>
    <path class="cls-1" d="M308.09092,750.8251h60.46662c5.14145,0,5.15083-7.99,0-7.99H308.09092c-5.14143,0-5.15084,7.99,0,7.99Z"/>
    <path class="cls-1" d="M282.8595,886.55312q25.17042-2.75243,50.33921-5.50581c2.14385-.2346,3.99437-1.66849,3.99437-3.99568,0-1.97739-1.83624-4.2306-3.99437-3.99438q-25.17042,2.75195-50.33921,5.50582c-2.14353.23428-3.99405,1.66816-3.99405,3.99405,0,1.979,1.83624,4.2319,3.99405,3.996Z"/>
    <path class="cls-1" d="M356.26583,1162.85109q10.07907-10.07664,20.15651-20.15522a3.99507,3.99507,0,0,0-5.64988-5.64988q-10.07907,10.07663-20.15652,20.15521a3.99508,3.99508,0,1,0,5.64989,5.64989Z"/>
    <path class="cls-1" d="M342.14566,1363.86365a255.29737,255.29737,0,0,1,67.91806-65.59215c4.27762-2.81358.2787-9.73576-4.03237-6.89817a265.68221,265.68221,0,0,0-70.78549,68.458c-2.97712,4.20334,3.94831,8.19934,6.8998,4.03234Z"/>
    <path class="cls-1" d="M391.22847,1419.539q19.82326-20.47646,39.64784-40.95486c3.57742-3.69617-2.0663-9.35255-5.65021-5.64988q-19.82278,20.47645-39.64752,40.95486c-3.57741,3.6965,2.066,9.35255,5.64989,5.64988Z"/>
    <path class="cls-1" d="M477.10855,1439.873a46.23439,46.23439,0,0,0,16.56644-26.76979,4.07547,4.07547,0,0,0-2.79022-4.91461c-1.99781-.45492-4.46164.60192-4.91461,2.79152a42.66176,42.66176,0,0,1-2.07572,7.00622c-.04121.10611-.37542.90466-.12687.32643-.10286.24239-.21059.48316-.31994.7223q-.3684.81039-.77162,1.60521c-.56557,1.11687-1.18046,2.21168-1.84111,3.27468-.62722,1.00946-1.30052,1.9868-2.0027,2.944-.11877.16159-.35629.46725-.09638.13466-.2028.25958-.41047.51495-.621.77q-.56607.68677-1.16,1.34823a42.58328,42.58328,0,0,1-5.49608,5.11124c-1.65583,1.29274-1.45757,4.3127,0,5.64989,1.75545,1.613,3.8834,1.3784,5.64989,0Z"/>
    <path class="cls-1" d="M619.80482,1655.05471A351.99871,351.99871,0,0,1,668.813,1554.73322c2.96447-4.2147-3.95929-8.21037-6.90011-4.03234A358.94846,358.94846,0,0,0,612.09966,1652.93c-1.49553,4.93083,6.21417,7.038,7.70516,2.12471Z"/>
    <path class="cls-1" d="M648.40274,1755.24186A601.3359,601.3359,0,0,1,721.04232,1621.561c3.0086-4.17966-3.91845-8.17241-6.89849-4.03234a609.10054,609.10054,0,0,0-73.44592,135.59011c-1.86155,4.79585,5.86242,6.87319,7.70483,2.12309Z"/>
    <path class="cls-1" d="M695.6412,1792.50833q30.21822-57.95562,60.43482-115.91222c2.37521-4.55508-4.51679-8.60007-6.89817-4.034q-30.21822,57.958-60.43482,115.91384c-2.37521,4.55346,4.51841,8.59845,6.89817,4.03234Z"/>
    <path class="cls-1" d="M1262.00718,1639.65153q14.55886,38.0063,29.11774,76.01225c1.82034,4.75334,9.54919,2.69028,7.70483-2.12438l-29.11774-76.01258c-1.82035-4.75334-9.54757-2.69028-7.70483,2.12471Z"/>
    <path class="cls-1" d="M1327.30437,1619.60112a134.82011,134.82011,0,0,0,24.47894,52.12452c1.30864,1.70158,3.44276,2.63025,5.46591,1.43226,1.67465-.9887,2.76-3.739,1.43226-5.46428a129.41671,129.41671,0,0,1-23.6739-50.21721c-1.14056-5.01162-8.847-2.88984-7.70321,2.12471Z"/>
    <path class="cls-1" d="M1590.35988,1376.04115q17.72453,12.46791,35.45229,24.93841c1.76518,1.24212,4.44125.31832,5.46623-1.43227a4.07948,4.07948,0,0,0-1.43383-5.46623q-17.727-12.46985-35.45234-24.9397c-1.76649-1.24212-4.44087-.31865-5.46591,1.43388a4.07752,4.07752,0,0,0,1.43356,5.46591Z"/>
    <path class="cls-1" d="M1676.71533,1309.53655a86.07189,86.07189,0,0,0,52.35781,10.63621c2.14191-.25537,3.99574-1.651,3.99574-3.99438,0-1.95987-1.83793-4.25234-3.99574-3.99437a78.91254,78.91254,0,0,1-48.32547-9.54725c-4.48207-2.53518-8.51273,4.36494-4.03234,6.89979Z"/>
    <path class="cls-1" d="M1752.72465,1283.613a83.17027,83.17027,0,0,0,63.569,7.93618c4.94317-1.38651,2.84377-9.09751-2.12308-7.70353a74.954,74.954,0,0,1-57.41358-7.13115c-4.46649-2.565-8.494,4.33638-4.03234,6.8985Z"/>
    <path class="cls-1" d="M1674.93139,781.59219q45.49248-14.68251,90.98185-29.36663c4.87346-1.57309,2.7886-9.2909-2.12309-7.70483q-45.49259,14.68494-90.98191,29.36662c-4.8734,1.57342-2.78828,9.2909,2.12315,7.70484Z"/>
    <path class="cls-1" d="M1628.79092,728.54712a203.36491,203.36491,0,0,0,78.50621-43.74833c3.836-3.44113-1.82975-9.07512-5.64988-5.64988a194.21428,194.21428,0,0,1-74.981,41.693c-4.92435,1.44362-2.82819,9.15624,2.12471,7.70516Z"/>
    <path class="cls-1" d="M1380.33391,396.52451a230.752,230.752,0,0,1,62.5245-56.07444c4.37915-2.67762.3692-9.592-4.03208-6.89849a241.211,241.211,0,0,0-65.39259,58.94059c-1.32453,1.724-.25179,4.45709,1.43389,5.46623,2.04554,1.22492,4.15759.26932,5.46628-1.43389Z"/>
    <path class="cls-1" d="M1460.16137,417.38937q25.46788-30.00211,50.935-60.00554c3.30809-3.89736-2.31648-9.57742-5.64989-5.64988q-25.46732,30.00212-50.935,60.00553c-3.30809,3.899,2.31648,9.57742,5.64989,5.64989Z"/>
    <path class="cls-1" d="M972.19128,293.32227V202.621c0-5.14142-7.99-5.14921-7.99,0v90.70124c0,5.14142,7.99,5.15083,7.99,0Z"/>
    <path class="cls-1" d="M1032.97947,293.294a314.5779,314.5779,0,0,1,3.8847-84.69994c.92542-5.0272-6.7732-7.18177-7.70483-2.12471a322.24994,322.24994,0,0,0-4.16862,86.82465c.44843,5.08106,8.44335,5.12844,7.98875,0Z"/>
    <path class="cls-1" d="M1107.22523,308.32016q2.38836-20.17226,4.777-40.34321c.25342-2.14677-2.0186-3.99567-3.996-3.99567-2.37,0-3.739,1.84241-3.99405,3.99567q-2.38884,20.17032-4.777,40.34321c-.25337,2.14548,2.01861,3.99438,3.99568,3.99438,2.37039,0,3.73933-1.84274,3.99437-3.99438Z"/>
    <path class="cls-1" d="M1217.6365,336.16431q5.05218-5.02445,10.10665-10.04986a3.99508,3.99508,0,0,0-5.64989-5.64989q-5.05268,5.02639-10.107,10.04987a3.99519,3.99519,0,0,0,5.65021,5.64988Z"/>
    <path class="cls-1" d="M487.933,311.16263q29.63606,18.58943,59.27185,37.1808c4.36818,2.73928,8.383-4.17187,4.03234-6.90012q-29.6361-18.58943-59.27026-37.1808c-4.3698-2.7409-8.383,4.17025-4.03393,6.90012Z"/>
    <path class="cls-1" d="M426.01852,366.87591a547.54856,547.54856,0,0,0,71.79621,60.53931c4.20821,2.97388,8.20421-3.95122,4.034-6.89817a535.87169,535.87169,0,0,1-70.182-59.291c-3.63453-3.64556-9.286,2.0027-5.64823,5.64988Z"/>
    <path class="cls-1" d="M447.15429,468.115q22.53432,15.322,45.06929,30.64508c4.2637,2.89957,8.26586-4.021,4.034-6.89817q-22.53723-15.322-45.07124-30.64541c-4.26337-2.89925-8.2655,4.02131-4.032,6.8985Z"/>
    <path class="cls-1" d="M601.94077,370.92415q10.07664,15.11715,20.1549,30.23332a4.09021,4.09021,0,0,0,5.46622,1.43388,4.03615,4.03615,0,0,0,1.43389-5.46623q-10.07907-15.11763-20.15651-30.23331a4.0899,4.0899,0,0,0-5.46623-1.43389,4.0341,4.0341,0,0,0-1.43227,5.46623Z"/>
    <path class="cls-1" d="M682.6035,345.707q10.09561,17.62474,20.18961,35.254c2.55433,4.46,9.46061.44065,6.8985-4.03364q-10.09319-17.62717-20.18832-35.25435c-2.55558-4.46163-9.4619-.44032-6.89979,4.034Z"/>
  </g>
</svg>
